# xmcd CD database file
#
# Track frame offsets:
#	150
#	9815
#	20222
#	31539
#	48060
#	60377
#	67521
#	72400
#	98649
#	107542
#	122853
#	128739
#	136380
#	144057
#	159765
#	170837
#	182627
#	197577
#	217250
#	231173
#	247047
#	259563
#	268377
#	275420
#
# Disc length: 3754 seconds
#
# Revision: 0
# Processed by: cddbd v1.4PL0 Copyright (c) Steve Scherf et al.
# Submitted via: CDex 1.50
#
DISCID=480ea818
DTITLE=Mel Bay - Jazz Guitar Solos
DYEAR=1900
DGENRE=Jazz
TTITLE0=Jeff Linsky -  The Love Club
TTITLE1=Dennis McCorkle - Just for the Thinking
TTITLE2=Paul Mehling - Swing This
TTITLE3=Bill Moio - Time Stood Still
TTITLE4=Bill Molo - Flippin' with Bird
TTITLE5=Van Moretti - Swingin' on 7
TTITLE6=Howard Morgen - Ohhh!  Susanna
TTITLE7=Ronald Muldrow - Ra-Fe-El
TTITLE8=Paul Musso - Moon Flower
TTITLE9=Jim Nichols - Careless Love
TTITLE10=Jack Peterson - Groovey!
TTITLE11=Bill Piburn - Prince John
TTITLE12=Bucky Pizarelli - Indy Annie
TTITLE13=John Pizarelli - Ep's Frets
TTITLE14=Johnny Rector - Noodlin' at 80
TTITLE15=Sal Salvador - Compesina
TTITLE16=Jerry SIms - Just Like a Dream
TTITLE17=Johnny Smith - Satan's Doll
TTITLE18=Johnny Smith - Lulabye
TTITLE19=Fred Sokolow - Baby Brother
TTITLE20=Stanley Solow - Opus Untitiled
TTITLE21=Chris Standring - First of December
TTITLE22=Jimmy Stewart - Autumn Nocturne
TTITLE23=Andy Summers - Evans Above
EXTD=
EXTT0=
EXTT1=
EXTT2=
EXTT3=
EXTT4=
EXTT5=
EXTT6=
EXTT7=
EXTT8=
EXTT9=
EXTT10=
EXTT11=
EXTT12=
EXTT13=
EXTT14=
EXTT15=
EXTT16=
EXTT17=
EXTT18=
EXTT19=
EXTT20=
EXTT21=
EXTT22=
EXTT23=
PLAYORDER=
